<svg width="34" height="41" fill="none" xmlns="http://www.w3.org/2000/svg"><rect width="34" height="41" rx="8" fill="#39DB4A"/><path d="M23.85 8.078c.521 0 .907.023 1.156.068.272.023.567.125.884.306.34.181.578.487.714.918.136.43.204 1.009.204 1.734 0 .726-.068 1.304-.204 1.734-.136.43-.374.737-.714.918a3.62 3.62 0 0 1-.918.306c-.25.023-.646.034-1.19.034H13.378v3.434h6.698c.544 0 .94.023 1.19.068.272.023.578.125.918.306.59.34.884 1.236.884 2.686 0 1.587-.43 2.527-1.292 2.822-.363.114-.94.17-1.734.17h-6.664v6.426c0 .544-.023.94-.068 1.19-.023.25-.037.53-.31.802-.095.095-1.23 0-1.648 0-1.587 0-2.516-.43-2.788-1.292-.136-.362-.204-.94-.204-1.734V12.07c0-1.156.215-1.938.646-2.346.43-.43 1.247-.646 2.448-.646l12.396-1Z" fill="#fff"/></svg>