<svg width="64" height="64" fill="none" xmlns="http://www.w3.org/2000/svg"><g clip-path="url(#a)" fill="#5FE26C"><path d="M18.666 64.002a5.333 5.333 0 1 0 0-10.667 5.333 5.333 0 0 0 0 10.667Zm26.667 0a5.333 5.333 0 1 0 0-10.667 5.333 5.333 0 0 0 0 10.667ZM63.16 3.561a2.667 2.667 0 0 0-3.77 0l-13.758 13.77-4.136-4.317a2.667 2.667 0 0 0-3.846 3.696l4.304 4.478a4.992 4.992 0 0 0 3.587 1.6h.088a4.993 4.993 0 0 0 3.56-1.475L63.16 7.332a2.667 2.667 0 0 0 0-3.771Z"/><path d="M58.4 24.043a2.666 2.666 0 0 0-3.099 2.152l-.341 1.89a8 8 0 0 1-7.875 6.582H14.448l-2.507-21.334h17.392a2.666 2.666 0 1 0 0-5.333H11.312l-.112-.939A8 8 0 0 0 3.259 0h-.592a2.667 2.667 0 1 0 0 5.333h.592a2.667 2.667 0 0 1 2.648 2.355l3.669 31.2a13.333 13.333 0 0 0 13.243 11.779h27.848a2.667 2.667 0 0 0 0-5.334H22.819A7.999 7.999 0 0 1 15.275 40h31.81a13.334 13.334 0 0 0 13.123-10.968l.341-1.893a2.667 2.667 0 0 0-2.149-3.096Z"/></g><defs><clipPath id="a"><path fill="#fff" d="M0 0h64v64H0z"/></clipPath></defs></svg>