<svg width="64" height="64" fill="none" xmlns="http://www.w3.org/2000/svg"><g clip-path="url(#a)"><path d="M61.85 30.934a10.513 10.513 0 0 0-5.714-3.859 57.605 57.605 0 0 0 2.458-9.95 8.02 8.02 0 0 0-9.066-9.044 51.01 51.01 0 0 0-2.696.456A13.278 13.278 0 0 0 48 2.582a2.667 2.667 0 1 0-5.334.17 8.056 8.056 0 0 1-.77 3.734 10.386 10.386 0 0 0-1.63-2.88 10.684 10.684 0 0 0-9.6-3.515 10.134 10.134 0 0 0-5.333 2.043A10.504 10.504 0 0 0 19.288.027a10.53 10.53 0 0 0-7.694 2.339A10.743 10.743 0 0 0 8 10.086a10.929 10.929 0 0 0 1.946 6.576 13.202 13.202 0 0 0-4.533 11.435A10.579 10.579 0 0 0 .437 40.4a39.332 39.332 0 0 0 9.885 16.842A23.792 23.792 0 0 0 27.037 64h9.925a23.782 23.782 0 0 0 16.712-6.758A39.311 39.311 0 0 0 63.562 40.4a10.668 10.668 0 0 0-1.712-9.467ZM50.27 13.36a2.7 2.7 0 0 1 3.037 3.045A53.402 53.402 0 0 1 50.6 26.667h-6.83l3.448-3.448a2.667 2.667 0 0 0-3.77-3.77l-7.22 7.218h-4.13a9.141 9.141 0 0 1 2.603-7.733c1.139-1.15 5.504-4.267 15.568-5.573Zm-36.936-3.096a5.402 5.402 0 0 1 1.773-3.886 5.427 5.427 0 0 1 3.827-1.03 4.661 4.661 0 0 1 3.541 1.417 3.836 3.836 0 0 0 2.859 1.277 3.84 3.84 0 0 0 2.848-1.285 4.373 4.373 0 0 1 3.083-1.368 5.416 5.416 0 0 1 4.874 1.6 5.648 5.648 0 0 1 1.195 3.637v.552a17.19 17.19 0 0 0-8.608 6.835 13.11 13.11 0 0 0-14.09-4 5.504 5.504 0 0 1-1.302-3.75Zm-2.667 16.402a8 8 0 0 1 16 0h-16Zm47.776 12.238a34.452 34.452 0 0 1-8.533 14.56 18.4 18.4 0 0 1-12.947 5.202h-9.925a18.424 18.424 0 0 1-12.952-5.202 34.445 34.445 0 0 1-8.533-14.56 5.384 5.384 0 0 1 .864-4.771A5.274 5.274 0 0 1 10.666 32h42.667a5.274 5.274 0 0 1 4.267 2.133 5.384 5.384 0 0 1 .842 4.77Z" fill="#5FE26C"/></g><defs><clipPath id="a"><path fill="#fff" d="M0 0h64v64H0z"/></clipPath></defs></svg>