<svg version="1.0" xmlns="http://www.w3.org/2000/svg" width="66.667" height="66.667" viewBox="0 0 50 50"><path d="M15.5 4.4C9.5 7.2 6.8 10 4.1 16 .5 23.9 2.2 34.3 8.3 40.9 11.6 44.5 19.8 48 25 48c5.2 0 13.4-3.5 16.7-7.1 3.4-3.7 6.3-11 6.3-15.9 0-5.2-3.5-13.4-7.1-16.7C37.2 4.9 29.9 2 25 2c-2.7 0-6.5 1-9.5 2.4zm18 1.5C46.9 12 50 29.2 39.6 39.6c-10.5 10.5-27.4 7.5-33.7-6.1C-2 16.4 16.3-1.9 33.5 5.9z"/><path d="M17.5 7.9c-9.8 4.5-14 15.2-9.6 24.6 7 15.1 27.2 15.1 34.2 0 4.5-9.6-.1-20.7-10.3-25-4.9-2-9.4-1.9-14.3.4zm13.8 13.8c2.6 1.4 4.7 2.9 4.7 3.3 0 .4-2.1 1.9-4.7 3.3-2.7 1.5-6.7 3.8-9 5.2L18 36.1V13.9l4.3 2.6c2.3 1.4 6.3 3.7 9 5.2z"/></svg>