<svg width="31" height="23" fill="none" xmlns="http://www.w3.org/2000/svg"><path d="m18.2 11.585-4.725 2.7v-5.4l4.725 2.7Z" fill="#484848" stroke="#484848" stroke-width="2.5" stroke-linecap="round" stroke-linejoin="round"/><path d="M2 12.54v-1.91c0-3.91 0-5.863 1.222-7.12 1.223-1.258 3.147-1.313 6.996-1.421C12.042 2.037 13.905 2 15.5 2c1.595 0 3.458.037 5.282.089 3.849.108 5.773.163 6.996 1.42C29 4.767 29 6.721 29 10.63v1.911c0 3.909 0 5.863-1.222 7.12-1.223 1.258-3.147 1.313-6.996 1.422-1.824.051-3.687.088-5.282.088-1.595 0-3.458-.037-5.282-.088-3.849-.11-5.773-.164-6.996-1.421C2 18.403 2 16.449 2 12.54Z" stroke="#484848" stroke-width="2.5"/></svg>