<?xml version="1.0" standalone="no"?>
<!DOCTYPE svg PUBLIC "-//W3C//DTD SVG 20010904//EN"
 "http://www.w3.org/TR/2001/REC-SVG-20010904/DTD/svg10.dtd">
<svg version="1.0" xmlns="http://www.w3.org/2000/svg"
 width="50.000000pt" height="50.000000pt" viewBox="0 0 50.000000 50.000000"
 preserveAspectRatio="xMidYMid meet">

<g transform="translate(0.000000,50.000000) scale(0.100000,-0.100000)"
fill="#000000" stroke="none">
<path d="M155 456 c-60 -28 -87 -56 -114 -116 -36 -79 -19 -183 42 -249 33
-36 115 -71 167 -71 52 0 134 35 167 71 34 37 63 110 63 159 0 52 -35 134 -71
167 -37 34 -110 63 -159 63 -27 0 -65 -10 -95 -24z m180 -15 c134 -61 165
-233 61 -337 -105 -105 -274 -75 -337 61 -79 171 104 354 276 276z"/>
<path d="M175 421 c-98 -45 -140 -152 -96 -246 70 -151 272 -151 342 0 45 96
-1 207 -103 250 -49 20 -94 19 -143 -4z m138 -138 c26 -14 47 -29 47 -33 0 -4
-21 -19 -47 -33 -27 -15 -67 -38 -90 -52 l-43 -26 0 111 0 111 43 -26 c23 -14
63 -37 90 -52z"/>
</g>
</svg>
